<svg width="312" height="693" viewBox="0 0 312 693" fill="none" xmlns="http://www.w3.org/2000/svg">
<g opacity="0.1">
<path fill-rule="evenodd" clip-rule="evenodd" d="M277.441 329.684C279.704 327.375 283.399 327.375 285.659 329.684L293.873 338.098L302.095 329.684C304.348 327.375 308.046 327.375 310.306 329.684H310.313C312.562 331.997 312.562 335.781 310.313 338.094L302.084 346.507L310.306 354.917C312.563 357.219 312.563 361.003 310.306 363.316C308.042 365.625 304.348 365.625 302.084 363.316L293.873 354.917L285.659 363.316C283.399 365.625 279.708 365.625 277.451 363.316C275.18 361.003 275.18 357.219 277.451 354.917L285.659 346.507L277.441 338.094C275.184 335.781 275.184 331.997 277.441 329.684Z" fill="#63C069"/>
<path fill-rule="evenodd" clip-rule="evenodd" d="M277.441 220.887C279.704 218.634 283.399 218.634 285.659 220.887L293.873 229.11L302.095 220.887C304.348 218.634 308.046 218.634 310.306 220.887H310.313C312.562 223.151 312.562 226.853 310.313 229.106L302.084 237.328L310.306 245.54C312.563 247.8 312.563 251.495 310.306 253.752V253.759C308.042 256.012 304.348 256.012 302.084 253.759L293.873 245.54L285.659 253.759C283.399 256.012 279.708 256.012 277.451 253.759V253.752C275.18 251.495 275.18 247.8 277.451 245.54L285.659 237.328L277.441 229.106C275.184 226.853 275.184 223.151 277.441 220.887Z" fill="#52B3CB"/>
<path fill-rule="evenodd" clip-rule="evenodd" d="M277.441 472.108C279.704 474.368 283.399 474.368 285.659 472.108L293.873 463.886L302.095 472.108C304.348 474.368 308.046 474.368 310.306 472.108H310.313C312.562 469.848 312.562 466.154 310.313 463.89L302.084 455.668L310.306 447.465C312.563 445.205 312.563 441.507 310.306 439.243C308.042 436.987 304.348 436.987 302.084 439.243L293.873 447.465L285.659 439.243C283.399 436.987 279.708 436.987 277.451 439.243C275.18 441.507 275.18 445.205 277.451 447.465L285.659 455.668L277.441 463.89C275.184 466.154 275.184 469.851 277.441 472.108Z" fill="#52B3CB"/>
<path fill-rule="evenodd" clip-rule="evenodd" d="M241.189 257.144C243.452 254.884 247.15 254.884 249.403 257.144L257.625 265.366L265.846 257.144C268.095 254.884 271.797 254.884 274.053 257.144C276.313 259.404 276.313 263.102 274.053 265.362L265.839 273.573L274.053 281.791C276.313 284.051 276.313 287.746 274.053 290.006C271.793 292.266 268.095 292.266 265.839 290.006L257.625 281.791L249.41 290.006C247.15 292.266 243.452 292.266 241.192 290.006C238.932 287.746 238.932 284.051 241.192 281.791L249.41 273.573L241.189 265.362C238.932 263.102 238.932 259.404 241.189 257.144Z" fill="#52B3CB"/>
<path fill-rule="evenodd" clip-rule="evenodd" d="M241.189 435.856C243.452 438.116 247.15 438.116 249.403 435.856L257.625 427.641L265.846 435.856C268.095 438.116 271.797 438.116 274.053 435.856C276.313 433.596 276.313 429.897 274.053 427.648L265.839 419.429L274.053 411.211C276.313 408.954 276.313 405.259 274.053 403.003V402.992C271.793 400.735 268.095 400.735 265.839 402.992L257.625 411.211L249.41 402.992C247.15 400.735 243.452 400.735 241.192 402.992V403.003C238.932 405.259 238.932 408.954 241.192 411.211L249.41 419.429L241.189 427.648C238.932 429.897 238.932 433.596 241.189 435.856Z" fill="#52B3CB"/>
<path fill-rule="evenodd" clip-rule="evenodd" d="M241.189 220.887C243.452 218.634 247.15 218.634 249.403 220.887L257.625 229.11L265.846 220.887C268.095 218.634 271.797 218.634 274.053 220.887C276.313 223.151 276.313 226.853 274.053 229.106L265.839 237.328L274.053 245.54C276.313 247.8 276.313 251.495 274.053 253.752V253.759C271.793 256.012 268.095 256.012 265.839 253.759L257.625 245.54L249.41 253.759C247.15 256.012 243.452 256.012 241.192 253.759V253.752C238.932 251.495 238.932 247.8 241.192 245.54L249.41 237.328L241.189 229.106C238.932 226.853 238.932 223.151 241.189 220.887Z" fill="#52B3CB"/>
<path fill-rule="evenodd" clip-rule="evenodd" d="M241.189 472.108C243.452 474.368 247.15 474.368 249.403 472.108L257.625 463.886L265.846 472.108C268.095 474.368 271.797 474.368 274.053 472.108C276.313 469.848 276.313 466.154 274.053 463.89L265.839 455.668L274.053 447.465C276.313 445.205 276.313 441.507 274.053 439.243C271.793 436.987 268.095 436.987 265.839 439.243L257.625 447.465L249.41 439.243C247.15 436.987 243.452 436.987 241.192 439.243C238.932 441.507 238.932 445.205 241.192 447.465L249.41 455.668L241.189 463.89C238.932 466.154 238.932 469.851 241.189 472.108Z" fill="#52B3CB"/>
<path fill-rule="evenodd" clip-rule="evenodd" d="M204.133 257.144C206.449 254.884 210.233 254.884 212.534 257.144L220.946 265.366L229.358 257.144C231.666 254.884 235.45 254.884 237.762 257.144C240.074 259.404 240.074 263.102 237.762 265.362L229.354 273.573L237.759 281.791C240.067 284.051 240.067 287.746 237.759 290.006C235.443 292.266 231.666 292.266 229.354 290.006L220.946 281.791L212.545 290.006C210.232 292.266 206.449 292.266 204.137 290.006C201.824 287.746 201.824 284.051 204.137 281.791L212.545 273.573L204.133 265.362C201.824 263.102 201.824 259.404 204.133 257.144Z" fill="#52B3CB"/>
<path fill-rule="evenodd" clip-rule="evenodd" d="M204.133 435.856C206.449 438.116 210.233 438.116 212.534 435.856L220.946 427.641L229.358 435.856C231.666 438.116 235.45 438.116 237.762 435.856C240.074 433.596 240.074 429.897 237.762 427.648L229.354 419.429L237.759 411.211C240.067 408.954 240.067 405.259 237.759 403.003V402.992C235.443 400.735 231.666 400.735 229.354 402.992L220.946 411.211L212.545 402.992C210.232 400.735 206.449 400.735 204.137 402.992V403.003C201.824 405.259 201.824 408.954 204.137 411.211L212.545 419.429L204.133 427.648C201.824 429.897 201.824 433.596 204.133 435.856Z" fill="#52B3CB"/>
<path fill-rule="evenodd" clip-rule="evenodd" d="M204.133 293.396C206.449 291.136 210.233 291.136 212.534 293.396L220.946 301.616L229.358 293.396C231.666 291.136 235.45 291.136 237.762 293.396C240.074 295.655 240.074 299.357 237.762 301.616L229.354 309.83L237.759 318.044C240.067 320.297 240.067 323.994 237.759 326.258C235.443 328.518 231.666 328.518 229.354 326.258L220.946 318.044L212.545 326.258C210.232 328.518 206.449 328.518 204.137 326.258C201.824 323.994 201.824 320.297 204.137 318.044L212.545 309.83L204.133 301.616C201.824 299.353 201.824 295.652 204.133 293.396Z" fill="#52B3CB"/>
<path fill-rule="evenodd" clip-rule="evenodd" d="M204.133 399.604C206.449 401.864 210.233 401.864 212.534 399.604L220.946 391.382L229.358 399.604C231.666 401.864 235.45 401.864 237.762 399.604C240.074 397.347 240.074 393.653 237.762 391.389L229.354 383.167L237.759 374.959C240.067 372.698 240.067 369.004 237.759 366.74C235.443 364.483 231.666 364.483 229.354 366.74L220.946 374.959L212.545 366.74C210.232 364.483 206.449 364.483 204.137 366.74C201.824 369.004 201.824 372.698 204.137 374.959L212.545 383.167L204.133 391.389C201.824 393.653 201.824 397.347 204.133 399.604Z" fill="#52B3CB"/>
<path fill-rule="evenodd" clip-rule="evenodd" d="M204.133 147.548C206.449 145.284 210.233 145.284 212.534 147.548L220.946 155.767L229.358 147.548C231.666 145.284 235.45 145.284 237.762 147.548C240.074 149.808 240.074 153.499 237.762 155.756L229.354 163.978L237.759 172.192C240.067 174.456 240.067 178.143 237.759 180.407C235.443 182.667 231.666 182.667 229.354 180.407L220.946 172.192L212.545 180.407C210.232 182.667 206.449 182.667 204.137 180.407C201.824 178.143 201.824 174.456 204.137 172.192L212.545 163.978L204.133 155.756C201.824 153.499 201.824 149.808 204.133 147.548Z" fill="#52B3CB"/>
<path fill-rule="evenodd" clip-rule="evenodd" d="M204.133 545.415C206.449 547.728 210.233 547.728 212.534 545.415L220.946 537.013L229.358 545.415C231.666 547.728 235.45 547.728 237.762 545.415C240.074 543.103 240.074 539.326 237.762 537.013L229.354 528.604L237.759 520.199C240.067 517.886 240.067 514.109 237.759 511.789C235.443 509.477 231.666 509.477 229.354 511.789L220.946 520.199L212.545 511.789C210.232 509.477 206.449 509.477 204.137 511.789C201.824 514.109 201.824 517.886 204.137 520.199L212.545 528.604L204.133 537.013C201.824 539.33 201.824 543.106 204.133 545.415Z" fill="#52B3CB"/>
<path fill-rule="evenodd" clip-rule="evenodd" d="M204.133 220.887C206.449 218.634 210.233 218.634 212.534 220.887L220.946 229.11L229.358 220.887C231.666 218.634 235.45 218.634 237.762 220.887C240.074 223.151 240.074 226.853 237.762 229.106L229.354 237.328L237.759 245.54C240.067 247.8 240.067 251.495 237.759 253.752V253.759C235.443 256.012 231.666 256.012 229.354 253.759L220.946 245.54L212.545 253.759C210.232 256.012 206.449 256.012 204.137 253.759V253.752C201.824 251.495 201.824 247.8 204.137 245.54L212.545 237.328L204.133 229.106C201.824 226.853 201.824 223.151 204.133 220.887Z" fill="#52B3CB"/>
<path fill-rule="evenodd" clip-rule="evenodd" d="M204.133 472.108C206.449 474.368 210.233 474.368 212.534 472.108L220.946 463.886L229.358 472.108C231.666 474.368 235.45 474.368 237.762 472.108C240.074 469.848 240.074 466.154 237.762 463.89L229.354 455.668L237.759 447.465C240.067 445.205 240.067 441.507 237.759 439.243C235.443 436.987 231.666 436.987 229.354 439.243L220.946 447.465L212.545 439.243C210.232 436.987 206.449 436.987 204.137 439.243C201.824 441.507 201.824 445.205 204.137 447.465L212.545 455.668L204.133 463.89C201.824 466.154 201.824 469.851 204.133 472.108Z" fill="#52B3CB"/>
<path fill-rule="evenodd" clip-rule="evenodd" d="M167.842 257.144C170.105 254.884 173.792 254.884 176.052 257.144L184.269 265.366L192.493 257.144C194.746 254.884 198.443 254.884 200.7 257.144H200.707C202.966 259.404 202.966 263.102 200.707 265.362L192.486 273.573L200.7 281.791C202.956 284.051 202.956 287.746 200.7 290.006C198.44 292.266 194.746 292.266 192.486 290.006L184.269 281.791L176.063 290.006C173.799 292.266 170.106 292.266 167.846 290.006C165.586 287.746 165.586 284.051 167.846 281.791L176.063 273.573L167.842 265.362C165.586 263.102 165.586 259.404 167.842 257.144Z" fill="#52B3CB"/>
<path fill-rule="evenodd" clip-rule="evenodd" d="M167.842 435.856C170.105 438.116 173.792 438.116 176.052 435.856L184.269 427.641L192.493 435.856C194.746 438.116 198.443 438.116 200.7 435.856H200.707C202.966 433.596 202.966 429.897 200.707 427.648L192.486 419.429L200.7 411.211C202.956 408.954 202.956 405.259 200.7 403.003V402.992C198.44 400.735 194.746 400.735 192.486 402.992L184.269 411.211L176.063 402.992C173.799 400.735 170.106 400.735 167.846 402.992V403.003C165.586 405.259 165.586 408.954 167.846 411.211L176.063 419.429L167.842 427.648C165.586 429.897 165.586 433.596 167.842 435.856Z" fill="#52B3CB"/>
<path fill-rule="evenodd" clip-rule="evenodd" d="M167.842 293.396C170.105 291.136 173.792 291.136 176.052 293.396L184.269 301.616L192.493 293.396C194.746 291.136 198.443 291.136 200.7 293.396H200.707C202.966 295.655 202.966 299.357 200.707 301.616L192.486 309.83L200.7 318.044C202.956 320.297 202.956 323.994 200.7 326.258C198.44 328.518 194.746 328.518 192.486 326.258L184.269 318.044L176.063 326.258C173.799 328.518 170.106 328.518 167.846 326.258C165.586 323.994 165.586 320.297 167.846 318.044L176.063 309.83L167.842 301.616C165.586 299.353 165.586 295.652 167.842 293.396Z" fill="#52B3CB"/>
<path fill-rule="evenodd" clip-rule="evenodd" d="M167.842 399.604C170.105 401.864 173.792 401.864 176.052 399.604L184.269 391.382L192.493 399.604C194.746 401.864 198.443 401.864 200.7 399.604H200.707C202.966 397.347 202.966 393.653 200.707 391.389L192.486 383.167L200.7 374.959C202.956 372.698 202.956 369.004 200.7 366.74C198.44 364.483 194.746 364.483 192.486 366.74L184.269 374.959L176.063 366.74C173.799 364.483 170.106 364.483 167.846 366.74C165.586 369.004 165.586 372.698 167.846 374.959L176.063 383.167L167.842 391.389C165.586 393.653 165.586 397.347 167.842 399.604Z" fill="#52B3CB"/>
<path fill-rule="evenodd" clip-rule="evenodd" d="M167.842 111.294C170.105 109.033 173.792 109.033 176.052 111.294L184.269 119.509L192.493 111.294C194.746 109.033 198.443 109.033 200.7 111.294H200.707C202.966 113.55 202.966 117.242 200.707 119.509L192.486 127.724L200.7 135.94C202.956 138.2 202.956 141.888 200.7 144.155C198.44 146.415 194.746 146.415 192.486 144.155L184.269 135.94L176.063 144.155C173.799 146.415 170.106 146.415 167.846 144.155C165.586 141.888 165.586 138.2 167.846 135.94L176.063 127.724L167.842 119.509C165.586 117.238 165.586 113.547 167.842 111.294Z" fill="#52B3CB"/>
<path fill-rule="evenodd" clip-rule="evenodd" d="M167.842 581.701C170.105 583.968 173.792 583.968 176.052 581.701L184.269 573.483L192.493 581.701C194.746 583.968 198.443 583.968 200.7 581.701H200.707C202.966 579.445 202.966 575.75 200.707 573.483L192.486 565.272L200.7 557.054C202.956 554.797 202.956 551.103 200.7 548.843C198.44 546.59 194.746 546.586 192.486 548.839L184.269 557.054L176.063 548.839C173.799 546.586 170.106 546.586 167.846 548.839C165.586 551.099 165.586 554.797 167.846 557.054L176.063 565.272L167.842 573.483C165.586 575.75 165.586 579.445 167.842 581.701Z" fill="#52B3CB"/>
<path fill-rule="evenodd" clip-rule="evenodd" d="M167.842 147.548C170.105 145.284 173.792 145.284 176.052 147.548L184.269 155.767L192.493 147.548C194.746 145.284 198.443 145.284 200.7 147.548H200.707C202.966 149.808 202.966 153.499 200.707 155.756L192.486 163.978L200.7 172.192C202.956 174.456 202.956 178.143 200.7 180.407C198.44 182.667 194.746 182.667 192.486 180.407L184.269 172.192L176.063 180.407C173.799 182.667 170.106 182.667 167.846 180.407C165.586 178.143 165.586 174.456 167.846 172.192L176.063 163.978L167.842 155.756C165.586 153.499 165.586 149.808 167.842 147.548Z" fill="#52B3CB"/>
<path fill-rule="evenodd" clip-rule="evenodd" d="M167.842 545.415C170.105 547.728 173.792 547.728 176.052 545.415L184.269 537.013L192.493 545.415C194.746 547.728 198.443 547.728 200.7 545.415H200.707C202.966 543.103 202.966 539.326 200.707 537.013L192.486 528.604L200.7 520.199C202.956 517.886 202.956 514.109 200.7 511.789C198.44 509.477 194.746 509.477 192.486 511.789L184.269 520.199L176.063 511.789C173.799 509.477 170.106 509.477 167.846 511.789C165.586 514.109 165.586 517.886 167.846 520.199L176.063 528.604L167.842 537.013C165.586 539.33 165.586 543.106 167.842 545.415Z" fill="#52B3CB"/>
<path fill-rule="evenodd" clip-rule="evenodd" d="M167.842 220.887C170.105 218.634 173.792 218.634 176.052 220.887L184.269 229.11L192.493 220.887C194.746 218.634 198.443 218.634 200.7 220.887H200.707C202.966 223.151 202.966 226.853 200.707 229.106L192.486 237.328L200.7 245.54C202.956 247.8 202.956 251.495 200.7 253.752V253.759C198.44 256.012 194.746 256.012 192.486 253.759L184.269 245.54L176.063 253.759C173.799 256.012 170.106 256.012 167.846 253.759V253.752C165.586 251.495 165.586 247.8 167.846 245.54L176.063 237.328L167.842 229.106C165.586 226.853 165.586 223.151 167.842 220.887Z" fill="#52B3CB"/>
<path fill-rule="evenodd" clip-rule="evenodd" d="M167.842 472.108C170.105 474.368 173.792 474.368 176.052 472.108L184.269 463.886L192.493 472.108C194.746 474.368 198.443 474.368 200.7 472.108H200.707C202.966 469.848 202.966 466.154 200.707 463.89L192.486 455.668L200.7 447.465C202.956 445.205 202.956 441.507 200.7 439.243C198.44 436.987 194.746 436.987 192.486 439.243L184.269 447.465L176.063 439.243C173.799 436.987 170.106 436.987 167.846 439.243C165.586 441.507 165.586 445.205 167.846 447.465L176.063 455.668L167.842 463.89C165.586 466.154 165.586 469.851 167.842 472.108Z" fill="#52B3CB"/>
<path fill-rule="evenodd" clip-rule="evenodd" d="M131.592 257.144H131.6C133.855 254.884 137.549 254.884 139.808 257.144L148.024 265.366L156.244 257.144C158.5 254.884 162.189 254.884 164.449 257.144C166.712 259.404 166.715 263.102 164.452 265.362L156.233 273.573L164.449 281.791C166.705 284.051 166.705 287.746 164.449 290.006C162.189 292.266 158.496 292.266 156.233 290.006L148.024 281.791L139.812 290.006C137.549 292.266 133.859 292.266 131.6 290.006C129.337 287.746 129.337 284.051 131.6 281.791L139.812 273.573L131.592 265.362C129.333 263.102 129.333 259.404 131.592 257.144Z" fill="#52B3CB"/>
<path fill-rule="evenodd" clip-rule="evenodd" d="M131.592 435.856H131.6C133.855 438.116 137.549 438.116 139.808 435.856L148.024 427.641L156.244 435.856C158.5 438.116 162.189 438.116 164.449 435.856C166.712 433.596 166.715 429.897 164.452 427.648L156.233 419.429L164.449 411.211C166.705 408.954 166.705 405.259 164.449 403.003V402.992C162.189 400.735 158.496 400.735 156.233 402.992L148.024 411.211L139.812 402.992C137.549 400.735 133.859 400.735 131.6 402.992V403.003C129.337 405.259 129.337 408.954 131.6 411.211L139.812 419.429L131.592 427.648C129.333 429.897 129.333 433.596 131.592 435.856Z" fill="#52B3CB"/>
<path fill-rule="evenodd" clip-rule="evenodd" d="M131.592 293.396H131.6C133.855 291.136 137.549 291.136 139.808 293.396L148.024 301.616L156.244 293.396C158.5 291.136 162.189 291.136 164.449 293.396C166.712 295.655 166.715 299.357 164.452 301.616L156.233 309.83L164.449 318.044C166.705 320.297 166.705 323.994 164.449 326.258C162.189 328.518 158.496 328.518 156.233 326.258L148.024 318.044L139.812 326.258C137.549 328.518 133.859 328.518 131.6 326.258C129.337 323.994 129.337 320.297 131.6 318.044L139.812 309.83L131.592 301.616C129.333 299.353 129.333 295.652 131.592 293.396Z" fill="#52B3CB"/>
<path fill-rule="evenodd" clip-rule="evenodd" d="M131.592 399.604H131.6C133.855 401.864 137.549 401.864 139.808 399.604L148.024 391.382L156.244 399.604C158.5 401.864 162.189 401.864 164.449 399.604C166.712 397.347 166.715 393.653 164.452 391.389L156.233 383.167L164.449 374.959C166.705 372.698 166.705 369.004 164.449 366.74C162.189 364.483 158.496 364.483 156.233 366.74L148.024 374.959L139.812 366.74C137.549 364.483 133.859 364.483 131.6 366.74C129.337 369.004 129.337 372.698 131.6 374.959L139.812 383.167L131.592 391.389C129.333 393.653 129.333 397.347 131.592 399.604Z" fill="#52B3CB"/>
<path fill-rule="evenodd" clip-rule="evenodd" d="M131.592 75.0419H131.6C133.855 72.7817 137.549 72.7817 139.808 75.0419L148.024 83.2642L156.244 75.0419C158.5 72.7817 162.189 72.7817 164.449 75.0419C166.712 77.2986 166.715 80.9933 164.452 83.2535L156.233 91.4758L164.449 99.6944C166.705 101.948 166.705 105.642 164.449 107.906C162.189 110.163 158.496 110.163 156.233 107.906L148.024 99.6944L139.812 107.906C137.549 110.163 133.859 110.163 131.6 107.906C129.337 105.642 129.337 101.948 131.6 99.6944L139.812 91.4758L131.592 83.2535C129.333 80.9933 129.333 77.2986 131.592 75.0419Z" fill="#52B3CB"/>
<path fill-rule="evenodd" clip-rule="evenodd" d="M131.592 617.961H131.6C133.855 620.217 137.549 620.217 139.808 617.961L148.024 609.74L156.244 617.961C158.5 620.217 162.189 620.217 164.449 617.961C166.712 615.701 166.715 612.007 164.452 609.746L156.233 601.532L164.449 593.314C166.705 591.054 166.705 587.363 164.449 585.099C162.189 582.836 158.496 582.836 156.233 585.099L148.024 593.314L139.812 585.099C137.549 582.836 133.859 582.836 131.6 585.099C129.337 587.363 129.337 591.054 131.6 593.314L139.812 601.532L131.592 609.746C129.333 612.007 129.333 615.701 131.592 617.961Z" fill="#52B3CB"/>
<path fill-rule="evenodd" clip-rule="evenodd" d="M131.592 111.294H131.6C133.855 109.033 137.549 109.033 139.808 111.294L148.024 119.509L156.244 111.294C158.5 109.033 162.189 109.033 164.449 111.294C166.712 113.55 166.715 117.242 164.452 119.509L156.233 127.724L164.449 135.94C166.705 138.2 166.705 141.888 164.449 144.155C162.189 146.415 158.496 146.415 156.233 144.155L148.024 135.94L139.812 144.155C137.549 146.415 133.859 146.415 131.6 144.155C129.337 141.888 129.337 138.2 131.6 135.94L139.812 127.724L131.592 119.509C129.333 117.238 129.333 113.547 131.592 111.294Z" fill="#52B3CB"/>
<path fill-rule="evenodd" clip-rule="evenodd" d="M131.695 581.551H131.702C133.958 583.819 137.651 583.819 139.911 581.551L148.126 573.333L156.346 581.551C158.602 583.819 162.292 583.819 164.551 581.551C166.814 579.295 166.818 575.6 164.555 573.333L156.335 565.122L164.551 556.904C166.807 554.648 166.807 550.953 164.551 548.693C162.292 546.44 158.598 546.437 156.335 548.69L148.126 556.904L139.914 548.69C137.651 546.437 133.961 546.437 131.702 548.69C129.439 550.95 129.439 554.648 131.702 556.904L139.914 565.122L131.695 573.333C129.435 575.6 129.435 579.295 131.695 581.551Z" fill="#52B3CB"/>
<path fill-rule="evenodd" clip-rule="evenodd" d="M131.592 147.548H131.6C133.855 145.284 137.549 145.284 139.808 147.548L148.024 155.767L156.244 147.548C158.5 145.284 162.189 145.284 164.449 147.548C166.712 149.808 166.715 153.499 164.452 155.756L156.233 163.978L164.449 172.192C166.705 174.456 166.705 178.143 164.449 180.407C162.189 182.667 158.496 182.667 156.233 180.407L148.024 172.192L139.812 180.407C137.549 182.667 133.859 182.667 131.6 180.407C129.337 178.143 129.337 174.456 131.6 172.192L139.812 163.978L131.592 155.756C129.333 153.499 129.333 149.808 131.592 147.548Z" fill="#63C069"/>
<path fill-rule="evenodd" clip-rule="evenodd" d="M131.592 545.415H131.6C133.855 547.728 137.549 547.728 139.808 545.415L148.024 537.013L156.244 545.415C158.5 547.728 162.189 547.728 164.449 545.415C166.712 543.103 166.715 539.326 164.452 537.013L156.233 528.604L164.449 520.199C166.705 517.886 166.705 514.109 164.449 511.789C162.189 509.477 158.496 509.477 156.233 511.789L148.024 520.199L139.812 511.789C137.549 509.477 133.859 509.477 131.6 511.789C129.337 514.109 129.337 517.886 131.6 520.199L139.812 528.604L131.592 537.013C129.333 539.33 129.333 543.106 131.592 545.415Z" fill="#63C069"/>
<path fill-rule="evenodd" clip-rule="evenodd" d="M131.592 220.887H131.6C133.855 218.634 137.549 218.634 139.808 220.887L148.024 229.11L156.244 220.887C158.5 218.634 162.189 218.634 164.449 220.887C166.712 223.151 166.715 226.853 164.452 229.106L156.233 237.328L164.449 245.54C166.705 247.8 166.705 251.495 164.449 253.752V253.759C162.189 256.012 158.496 256.012 156.233 253.759L148.024 245.54L139.812 253.759C137.549 256.012 133.859 256.012 131.6 253.759V253.752C129.337 251.495 129.337 247.8 131.6 245.54L139.812 237.328L131.592 229.106C129.333 226.853 129.333 223.151 131.592 220.887Z" fill="#52B3CB"/>
<path fill-rule="evenodd" clip-rule="evenodd" d="M131.592 472.108H131.6C133.855 474.368 137.549 474.368 139.808 472.108L148.024 463.886L156.244 472.108C158.5 474.368 162.189 474.368 164.449 472.108C166.712 469.848 166.715 466.154 164.452 463.89L156.233 455.668L164.449 447.465C166.705 445.205 166.705 441.507 164.449 439.243C162.189 436.987 158.496 436.987 156.233 439.243L148.024 447.465L139.812 439.243C137.549 436.987 133.859 436.987 131.6 439.243C129.337 441.507 129.337 445.205 131.6 447.465L139.812 455.668L131.592 463.89C129.333 466.154 129.333 469.851 131.592 472.108Z" fill="#52B3CB"/>
<path fill-rule="evenodd" clip-rule="evenodd" d="M95.3416 257.144C97.6014 254.884 101.299 254.884 103.559 257.144L111.776 265.366L119.993 257.144C122.253 254.884 125.94 254.884 128.2 257.144C130.459 259.404 130.463 263.102 128.203 265.362L119.982 273.573L128.2 281.791C130.459 284.051 130.459 287.746 128.2 290.006C125.94 292.266 122.242 292.266 119.982 290.006L111.772 281.791L103.555 290.006C101.295 292.266 97.6051 292.266 95.3382 290.006C93.0819 287.746 93.0819 284.051 95.3382 281.791L103.555 273.573L95.3382 265.362C93.0891 263.102 93.089 259.404 95.3416 257.144Z" fill="#52B3CB"/>
<path fill-rule="evenodd" clip-rule="evenodd" d="M95.3416 435.856C97.6014 438.116 101.299 438.116 103.559 435.856L111.776 427.641L119.993 435.856C122.253 438.116 125.94 438.116 128.2 435.856C130.459 433.596 130.463 429.897 128.203 427.648L119.982 419.429L128.2 411.211C130.459 408.954 130.459 405.259 128.2 403.003V402.992C125.94 400.735 122.242 400.735 119.982 402.992L111.772 411.211L103.555 402.992C101.295 400.735 97.6051 400.735 95.3382 402.992V403.003C93.0819 405.259 93.0819 408.954 95.3382 411.211L103.555 419.429L95.3382 427.648C93.0891 429.897 93.089 433.596 95.3416 435.856Z" fill="#52B3CB"/>
<path fill-rule="evenodd" clip-rule="evenodd" d="M95.3416 293.396C97.6014 291.136 101.299 291.136 103.559 293.396L111.776 301.616L119.993 293.396C122.253 291.136 125.94 291.136 128.2 293.396C130.459 295.655 130.463 299.357 128.203 301.616L119.982 309.83L128.2 318.044C130.459 320.297 130.459 323.994 128.2 326.258C125.94 328.518 122.242 328.518 119.982 326.258L111.772 318.044L103.555 326.258C101.295 328.518 97.6051 328.518 95.3382 326.258C93.0819 323.994 93.0819 320.297 95.3382 318.044L103.555 309.83L95.3382 301.616C93.0891 299.353 93.089 295.652 95.3416 293.396Z" fill="#52B3CB"/>
<path fill-rule="evenodd" clip-rule="evenodd" d="M95.3416 399.604C97.6014 401.864 101.299 401.864 103.559 399.604L111.776 391.382L119.993 399.604C122.253 401.864 125.94 401.864 128.2 399.604C130.459 397.347 130.463 393.653 128.203 391.389L119.982 383.167L128.2 374.959C130.459 372.698 130.459 369.004 128.2 366.74C125.94 364.483 122.242 364.483 119.982 366.74L111.772 374.959L103.555 366.74C101.295 364.483 97.6051 364.483 95.3382 366.74C93.0819 369.004 93.0819 372.698 95.3382 374.959L103.555 383.167L95.3382 391.389C93.0891 393.653 93.089 397.347 95.3416 399.604Z" fill="#52B3CB"/>
<path fill-rule="evenodd" clip-rule="evenodd" d="M95.3416 329.684C97.6014 327.375 101.299 327.375 103.559 329.684L111.776 338.098L119.993 329.684C122.253 327.375 125.94 327.375 128.2 329.684C130.459 331.997 130.463 335.781 128.203 338.094L119.982 346.507L128.2 354.917C130.459 357.219 130.459 361.003 128.2 363.316C125.94 365.625 122.242 365.625 119.982 363.316L111.772 354.917L103.555 363.316C101.295 365.625 97.6051 365.625 95.3382 363.316C93.0819 361.003 93.0819 357.219 95.3382 354.917L103.555 346.507L95.3382 338.094C93.0891 335.781 93.089 331.997 95.3416 329.684Z" fill="#63C069"/>
<path fill-rule="evenodd" clip-rule="evenodd" d="M95.3416 183.837C97.6014 181.524 101.299 181.524 103.559 183.837L111.776 192.25L119.993 183.837C122.253 181.524 125.94 181.524 128.2 183.837C130.459 186.149 130.463 189.933 128.203 192.242L119.982 200.648L128.2 209.053C130.459 211.366 130.459 215.15 128.2 217.452V217.463C125.94 219.775 122.242 219.775 119.982 217.463L111.772 209.053L103.555 217.463C101.295 219.775 97.6051 219.775 95.3382 217.463V217.452C93.0819 215.15 93.0819 211.366 95.3382 209.053L103.555 200.648L95.3382 192.242C93.0891 189.93 93.089 186.146 95.3416 183.837Z" fill="#52B3CB"/>
<path fill-rule="evenodd" clip-rule="evenodd" d="M95.3416 508.359C97.6014 510.62 101.299 510.62 103.559 508.359L111.776 500.144L119.993 508.359C122.253 510.62 125.94 510.62 128.2 508.359C130.459 506.103 130.463 502.411 128.203 500.151L119.982 491.928L128.2 483.713C130.459 481.453 130.459 477.761 128.2 475.501C125.94 473.237 122.242 473.237 119.982 475.501L111.772 483.713L103.555 475.501C101.295 473.237 97.6051 473.237 95.3382 475.501C93.0819 477.761 93.0819 481.453 95.3382 483.713L103.555 491.928L95.3382 500.151C93.0891 502.411 93.089 506.103 95.3416 508.359Z" fill="#52B3CB"/>
<path fill-rule="evenodd" clip-rule="evenodd" d="M58.2827 1.69764C60.5953 -0.565879 64.3753 -0.565879 66.6914 1.69764L75.0965 9.91889L83.5092 1.69764C85.8144 -0.565879 89.598 -0.565879 91.9105 1.69764H91.9143C94.2232 3.95759 94.2232 7.65198 91.9143 9.91194L83.5019 18.126L91.9105 26.3438C94.2231 28.6038 94.2231 32.2942 91.9105 34.5542C89.5871 36.8177 85.8144 36.8177 83.5019 34.5542L75.0965 26.3438L66.6914 34.5542C64.3753 36.8177 60.5989 36.8177 58.2827 34.5542C55.9739 32.2942 55.9739 28.6038 58.2827 26.3438L66.6914 18.126L58.2827 9.91194C55.9739 7.65198 55.9739 3.95759 58.2827 1.69764Z" fill="#52B3CB"/>
<path fill-rule="evenodd" clip-rule="evenodd" d="M58.2827 691.263C60.5953 693.579 64.3753 693.579 66.6914 691.263L75.0965 682.862L83.5092 691.263C85.8144 693.579 89.598 693.579 91.9105 691.263H91.9143C94.2232 688.951 94.2232 685.171 91.9143 682.862L83.5019 674.454L91.9105 666.046C94.2231 663.734 94.2231 659.954 91.9105 657.649V657.642C89.5871 655.326 85.8144 655.326 83.5019 657.642L75.0965 666.046L66.6914 657.642C64.3753 655.326 60.5989 655.326 58.2827 657.642V657.649C55.9739 659.954 55.9739 663.734 58.2827 666.046L66.6914 674.454L58.2827 682.862C55.9739 685.171 55.9739 688.951 58.2827 691.263Z" fill="#52B3CB"/>
<path fill-rule="evenodd" clip-rule="evenodd" d="M58.2827 257.144C60.5953 254.884 64.3753 254.884 66.6914 257.144L75.0965 265.366L83.5092 257.144C85.8144 254.884 89.598 254.884 91.9105 257.144H91.9143C94.2232 259.404 94.2232 263.102 91.9143 265.362L83.5019 273.573L91.9105 281.791C94.2231 284.051 94.2231 287.746 91.9105 290.006C89.5871 292.266 85.8144 292.266 83.5019 290.006L75.0965 281.791L66.6914 290.006C64.3753 292.266 60.5989 292.266 58.2827 290.006C55.9739 287.746 55.9739 284.051 58.2827 281.791L66.6914 273.573L58.2827 265.362C55.9739 263.102 55.9739 259.404 58.2827 257.144Z" fill="#63C069"/>
<path fill-rule="evenodd" clip-rule="evenodd" d="M58.2827 435.856C60.5953 438.116 64.3753 438.116 66.6914 435.856L75.0965 427.641L83.5092 435.856C85.8144 438.116 89.598 438.116 91.9105 435.856H91.9143C94.2232 433.596 94.2232 429.897 91.9143 427.648L83.5019 419.429L91.9105 411.211C94.2231 408.954 94.2231 405.259 91.9105 403.003V402.992C89.5871 400.735 85.8144 400.735 83.5019 402.992L75.0965 411.211L66.6914 402.992C64.3753 400.735 60.5989 400.735 58.2827 402.992V403.003C55.9739 405.259 55.9739 408.954 58.2827 411.211L66.6914 419.429L58.2827 427.648C55.9739 429.897 55.9739 433.596 58.2827 435.856Z" fill="#63C069"/>
<path fill-rule="evenodd" clip-rule="evenodd" d="M58.2827 37.9863C60.5953 35.6737 64.3753 35.6737 66.6914 37.9863L75.0965 46.3956L83.5092 37.9863C85.8144 35.6737 89.598 35.6737 91.9105 37.9863H91.9143C94.2232 40.2989 94.2232 44.0793 91.9143 46.3956L83.5019 54.7976L91.9105 63.2067C94.2231 65.5157 94.2231 69.2925 91.9105 71.6051V71.6122C89.5871 73.9249 85.8144 73.9249 83.5019 71.6122L75.0965 63.2067L66.6914 71.6122C64.3753 73.9249 60.5989 73.9249 58.2827 71.6122V71.6051C55.9739 69.2925 55.9739 65.5157 58.2827 63.2067L66.6914 54.7976L58.2827 46.3956C55.9739 44.0793 55.9739 40.2989 58.2827 37.9863Z" fill="#52B3CB"/>
<path fill-rule="evenodd" clip-rule="evenodd" d="M58.2827 654.213C60.5953 656.469 64.3753 656.469 66.6914 654.213L75.0965 645.984L83.5092 654.213C85.8144 656.469 89.598 656.469 91.9105 654.213H91.9143C94.2232 651.942 94.2232 648.255 91.9143 645.995L83.5019 637.773L91.9105 629.559C94.2231 627.299 94.2231 623.608 91.9105 621.348C89.5871 619.088 85.8144 619.088 83.5019 621.348L75.0965 629.559L66.6914 621.348C64.3753 619.088 60.5989 619.088 58.2827 621.348C55.9739 623.608 55.9739 627.299 58.2827 629.559L66.6914 637.773L58.2827 645.995C55.9739 648.255 55.9739 651.942 58.2827 654.213Z" fill="#52B3CB"/>
<path fill-rule="evenodd" clip-rule="evenodd" d="M58.2827 293.396C60.5953 291.136 64.3753 291.136 66.6914 293.396L75.0965 301.616L83.5092 293.396C85.8144 291.136 89.598 291.136 91.9105 293.396H91.9143C94.2232 295.655 94.2232 299.357 91.9143 301.616L83.5019 309.83L91.9105 318.044C94.2231 320.297 94.2231 323.994 91.9105 326.258C89.5871 328.518 85.8144 328.518 83.5019 326.258L75.0965 318.044L66.6914 326.258C64.3753 328.518 60.5989 328.518 58.2827 326.258C55.9739 323.994 55.9739 320.297 58.2827 318.044L66.6914 309.83L58.2827 301.616C55.9739 299.353 55.9739 295.652 58.2827 293.396Z" fill="#52B3CB"/>
<path fill-rule="evenodd" clip-rule="evenodd" d="M58.2827 399.604C60.5953 401.864 64.3753 401.864 66.6914 399.604L75.0965 391.382L83.5092 399.604C85.8144 401.864 89.598 401.864 91.9105 399.604H91.9143C94.2232 397.347 94.2232 393.653 91.9143 391.389L83.5019 383.167L91.9105 374.959C94.2231 372.698 94.2231 369.004 91.9105 366.74C89.5871 364.483 85.8144 364.483 83.5019 366.74L75.0965 374.959L66.6914 366.74C64.3753 364.483 60.5989 364.483 58.2827 366.74C55.9739 369.004 55.9739 372.698 58.2827 374.959L66.6914 383.167L58.2827 391.389C55.9739 393.653 55.9739 397.347 58.2827 399.604Z" fill="#52B3CB"/>
<path fill-rule="evenodd" clip-rule="evenodd" d="M58.2827 75.0419C60.5953 72.7817 64.3753 72.7817 66.6914 75.0419L75.0965 83.2642L83.5092 75.0419C85.8144 72.7817 89.598 72.7817 91.9105 75.0419H91.9143C94.2232 77.2986 94.2232 80.9933 91.9143 83.2535L83.5019 91.4758L91.9105 99.6944C94.2231 101.948 94.2231 105.642 91.9105 107.906C89.5871 110.163 85.8144 110.163 83.5019 107.906L75.0965 99.6944L66.6914 107.906C64.3753 110.163 60.5989 110.163 58.2827 107.906C55.9739 105.642 55.9739 101.948 58.2827 99.6944L66.6914 91.4758L58.2827 83.2535C55.9739 80.9933 55.9739 77.2986 58.2827 75.0419Z" fill="#52B3CB"/>
<path fill-rule="evenodd" clip-rule="evenodd" d="M58.2827 617.961C60.5953 620.217 64.3753 620.217 66.6914 617.961L75.0965 609.74L83.5092 617.961C85.8144 620.217 89.598 620.217 91.9105 617.961H91.9143C94.2232 615.701 94.2232 612.007 91.9143 609.746L83.5019 601.532L91.9105 593.314C94.2231 591.054 94.2231 587.363 91.9105 585.099C89.5871 582.836 85.8144 582.836 83.5019 585.099L75.0965 593.314L66.6914 585.099C64.3753 582.836 60.5989 582.836 58.2827 585.099C55.9739 587.363 55.9739 591.054 58.2827 593.314L66.6914 601.532L58.2827 609.746C55.9739 612.007 55.9739 615.701 58.2827 617.961Z" fill="#52B3CB"/>
<path fill-rule="evenodd" clip-rule="evenodd" d="M58.2827 329.684C60.5953 327.375 64.3753 327.375 66.6914 329.684L75.0965 338.098L83.5092 329.684C85.8144 327.375 89.598 327.375 91.9105 329.684H91.9143C94.2232 331.997 94.2232 335.781 91.9143 338.094L83.5019 346.507L91.9105 354.917C94.2231 357.219 94.2231 361.003 91.9105 363.316C89.5871 365.625 85.8144 365.625 83.5019 363.316L75.0965 354.917L66.6914 363.316C64.3753 365.625 60.5989 365.625 58.2827 363.316C55.9739 361.003 55.9739 357.219 58.2827 354.917L66.6914 346.507L58.2827 338.094C55.9739 335.781 55.9739 331.997 58.2827 329.684Z" fill="#63C069"/>
<path fill-rule="evenodd" clip-rule="evenodd" d="M58.2827 111.294C60.5953 109.033 64.3753 109.033 66.6914 111.294L75.0965 119.509L83.5092 111.294C85.8144 109.033 89.598 109.033 91.9105 111.294H91.9143C94.2232 113.55 94.2232 117.242 91.9143 119.509L83.5019 127.724L91.9105 135.94C94.2231 138.2 94.2231 141.888 91.9105 144.155C89.5871 146.415 85.8144 146.415 83.5019 144.155L75.0965 135.94L66.6914 144.155C64.3753 146.415 60.5989 146.415 58.2827 144.155C55.9739 141.888 55.9739 138.2 58.2827 135.94L66.6914 127.724L58.2827 119.509C55.9739 117.238 55.9739 113.547 58.2827 111.294Z" fill="#52B3CB"/>
<path fill-rule="evenodd" clip-rule="evenodd" d="M58.2827 581.701C60.5953 583.968 64.3753 583.968 66.6914 581.701L75.0965 573.483L83.5092 581.701C85.8144 583.968 89.598 583.968 91.9105 581.701H91.9143C94.2232 579.445 94.2232 575.75 91.9143 573.483L83.5019 565.272L91.9105 557.054C94.2231 554.797 94.2231 551.103 91.9105 548.843C89.5871 546.59 85.8144 546.586 83.5019 548.839L75.0965 557.054L66.6914 548.839C64.3753 546.586 60.5989 546.586 58.2827 548.839C55.9739 551.099 55.9739 554.797 58.2827 557.054L66.6914 565.272L58.2827 573.483C55.9739 575.75 55.9739 579.445 58.2827 581.701Z" fill="#52B3CB"/>
<path fill-rule="evenodd" clip-rule="evenodd" d="M58.2827 147.548C60.5953 145.284 64.3753 145.284 66.6914 147.548L75.0965 155.767L83.5092 147.548C85.8144 145.284 89.598 145.284 91.9105 147.548H91.9143C94.2232 149.808 94.2232 153.499 91.9143 155.756L83.5019 163.978L91.9105 172.192C94.2231 174.456 94.2231 178.143 91.9105 180.407C89.5871 182.667 85.8144 182.667 83.5019 180.407L75.0965 172.192L66.6914 180.407C64.3753 182.667 60.5989 182.667 58.2827 180.407C55.9739 178.143 55.9739 174.456 58.2827 172.192L66.6914 163.978L58.2827 155.756C55.9739 153.499 55.9739 149.808 58.2827 147.548Z" fill="#52B3CB"/>
<path fill-rule="evenodd" clip-rule="evenodd" d="M58.2827 545.415C60.5953 547.728 64.3753 547.728 66.6914 545.415L75.0965 537.013L83.5092 545.415C85.8144 547.728 89.598 547.728 91.9105 545.415H91.9143C94.2232 543.103 94.2232 539.326 91.9143 537.013L83.5019 528.604L91.9105 520.199C94.2231 517.886 94.2231 514.109 91.9105 511.789C89.5871 509.477 85.8144 509.477 83.5019 511.789L75.0965 520.199L66.6914 511.789C64.3753 509.477 60.5989 509.477 58.2827 511.789C55.9739 514.109 55.9739 517.886 58.2827 520.199L66.6914 528.604L58.2827 537.013C55.9739 539.33 55.9739 543.106 58.2827 545.415Z" fill="#52B3CB"/>
<path fill-rule="evenodd" clip-rule="evenodd" d="M58.2827 220.887C60.5953 218.634 64.3753 218.634 66.6914 220.887L75.0965 229.11L83.5092 220.887C85.8144 218.634 89.598 218.634 91.9105 220.887H91.9143C94.2232 223.151 94.2232 226.853 91.9143 229.106L83.5019 237.328L91.9105 245.54C94.2231 247.8 94.2231 251.495 91.9105 253.752V253.759C89.5871 256.012 85.8144 256.012 83.5019 253.759L75.0965 245.54L66.6914 253.759C64.3753 256.012 60.5989 256.012 58.2827 253.759V253.752C55.9739 251.495 55.9739 247.8 58.2827 245.54L66.6914 237.328L58.2827 229.106C55.9739 226.853 55.9739 223.151 58.2827 220.887Z" fill="#52B3CB"/>
<path fill-rule="evenodd" clip-rule="evenodd" d="M58.2827 472.108C60.5953 474.368 64.3753 474.368 66.6914 472.108L75.0965 463.886L83.5092 472.108C85.8144 474.368 89.598 474.368 91.9105 472.108H91.9143C94.2232 469.848 94.2232 466.154 91.9143 463.89L83.5019 455.668L91.9105 447.465C94.2231 445.205 94.2231 441.507 91.9105 439.243C89.5871 436.987 85.8144 436.987 83.5019 439.243L75.0965 447.465L66.6914 439.243C64.3753 436.987 60.5989 436.987 58.2827 439.243C55.9739 441.507 55.9739 445.205 58.2827 447.465L66.6914 455.668L58.2827 463.89C55.9739 466.154 55.9739 469.851 58.2827 472.108Z" fill="#52B3CB"/>
<path fill-rule="evenodd" clip-rule="evenodd" d="M21.9943 257.144C24.2544 254.884 27.9523 254.884 30.2016 257.144L38.4233 265.366L46.638 257.144C48.8981 254.884 52.5959 254.884 54.856 257.144C57.1161 259.404 57.1161 263.102 54.856 265.362L46.638 273.573L54.8454 281.791C57.1161 284.051 57.1161 287.746 54.8454 290.006C52.5853 292.266 48.8981 292.266 46.638 290.006L38.4233 281.791L30.2088 290.006C27.9523 292.266 24.2544 292.266 21.9943 290.006C19.7342 287.746 19.7342 284.051 21.9943 281.791L30.2088 273.573L21.9943 265.362C19.7342 263.102 19.7342 259.404 21.9943 257.144Z" fill="#52B3CB"/>
<path fill-rule="evenodd" clip-rule="evenodd" d="M21.9943 435.856C24.2544 438.116 27.9523 438.116 30.2016 435.856L38.4233 427.641L46.638 435.856C48.8981 438.116 52.5959 438.116 54.856 435.856C57.1161 433.596 57.1161 429.897 54.856 427.648L46.638 419.429L54.8454 411.211C57.1161 408.954 57.1161 405.259 54.8454 403.003V402.992C52.5853 400.735 48.8981 400.735 46.638 402.992L38.4233 411.211L30.2088 402.992C27.9523 400.735 24.2544 400.735 21.9943 402.992V403.003C19.7342 405.259 19.7342 408.954 21.9943 411.211L30.2088 419.429L21.9943 427.648C19.7342 429.897 19.7342 433.596 21.9943 435.856Z" fill="#52B3CB"/>
<path fill-rule="evenodd" clip-rule="evenodd" d="M21.9943 37.9863C24.2544 35.6737 27.9523 35.6737 30.2016 37.9863L38.4233 46.3956L46.638 37.9863C48.8981 35.6737 52.5959 35.6737 54.856 37.9863C57.1161 40.2989 57.1161 44.0793 54.856 46.3956L46.638 54.7976L54.8454 63.2067C57.1161 65.5157 57.1161 69.2925 54.8454 71.6051V71.6122C52.5853 73.9249 48.8981 73.9249 46.638 71.6122L38.4233 63.2067L30.2088 71.6122C27.9523 73.9249 24.2544 73.9249 21.9943 71.6122V71.6051C19.7342 69.2925 19.7342 65.5157 21.9943 63.2067L30.2088 54.7976L21.9943 46.3956C19.7342 44.0793 19.7342 40.2989 21.9943 37.9863Z" fill="#52B3CB"/>
<path fill-rule="evenodd" clip-rule="evenodd" d="M21.9943 654.213C24.2544 656.469 27.9523 656.469 30.2016 654.213L38.4233 645.984L46.638 654.213C48.8981 656.469 52.5959 656.469 54.856 654.213C57.1161 651.942 57.1161 648.255 54.856 645.995L46.638 637.773L54.8454 629.559C57.1161 627.299 57.1161 623.608 54.8454 621.348C52.5853 619.088 48.8981 619.088 46.638 621.348L38.4233 629.559L30.2088 621.348C27.9523 619.088 24.2544 619.088 21.9943 621.348C19.7342 623.608 19.7342 627.299 21.9943 629.559L30.2088 637.773L21.9943 645.995C19.7342 648.255 19.7342 651.942 21.9943 654.213Z" fill="#52B3CB"/>
<path fill-rule="evenodd" clip-rule="evenodd" d="M21.9943 75.0419C24.2544 72.7817 27.9523 72.7817 30.2016 75.0419L38.4233 83.2642L46.638 75.0419C48.8981 72.7817 52.5959 72.7817 54.856 75.0419C57.1161 77.2986 57.1161 80.9933 54.856 83.2535L46.638 91.4758L54.8454 99.6944C57.1161 101.948 57.1161 105.642 54.8454 107.906C52.5853 110.163 48.8981 110.163 46.638 107.906L38.4233 99.6944L30.2088 107.906C27.9523 110.163 24.2544 110.163 21.9943 107.906C19.7342 105.642 19.7342 101.948 21.9943 99.6944L30.2088 91.4758L21.9943 83.2535C19.7342 80.9933 19.7342 77.2986 21.9943 75.0419Z" fill="#52B3CB"/>
<path fill-rule="evenodd" clip-rule="evenodd" d="M21.9943 617.961C24.2544 620.217 27.9523 620.217 30.2016 617.961L38.4233 609.74L46.638 617.961C48.8981 620.217 52.5959 620.217 54.856 617.961C57.1161 615.701 57.1161 612.007 54.856 609.746L46.638 601.532L54.8454 593.314C57.1161 591.054 57.1161 587.363 54.8454 585.099C52.5853 582.836 48.8981 582.836 46.638 585.099L38.4233 593.314L30.2088 585.099C27.9523 582.836 24.2544 582.836 21.9943 585.099C19.7342 587.363 19.7342 591.054 21.9943 593.314L30.2088 601.532L21.9943 609.746C19.7342 612.007 19.7342 615.701 21.9943 617.961Z" fill="#52B3CB"/>
<path fill-rule="evenodd" clip-rule="evenodd" d="M21.9943 111.294C24.2544 109.033 27.9523 109.033 30.2016 111.294L38.4233 119.509L46.638 111.294C48.8981 109.033 52.5959 109.033 54.856 111.294C57.1161 113.55 57.1161 117.242 54.856 119.509L46.638 127.724L54.8454 135.94C57.1161 138.2 57.1161 141.888 54.8454 144.155C52.5853 146.415 48.8981 146.415 46.638 144.155L38.4233 135.94L30.2088 144.155C27.9523 146.415 24.2544 146.415 21.9943 144.155C19.7342 141.888 19.7342 138.2 21.9943 135.94L30.2088 127.724L21.9943 119.509C19.7342 117.238 19.7342 113.547 21.9943 111.294Z" fill="#52B3CB"/>
<path fill-rule="evenodd" clip-rule="evenodd" d="M21.9943 581.701C24.2544 583.968 27.9523 583.968 30.2016 581.701L38.4233 573.483L46.638 581.701C48.8981 583.968 52.5959 583.968 54.856 581.701C57.1161 579.445 57.1161 575.75 54.856 573.483L46.638 565.272L54.8454 557.054C57.1161 554.797 57.1161 551.103 54.8454 548.843C52.5853 546.59 48.8981 546.586 46.638 548.839L38.4233 557.054L30.2088 548.839C27.9523 546.586 24.2544 546.586 21.9943 548.839C19.7342 551.099 19.7342 554.797 21.9943 557.054L30.2088 565.272L21.9943 573.483C19.7342 575.75 19.7342 579.445 21.9943 581.701Z" fill="#52B3CB"/>
<path fill-rule="evenodd" clip-rule="evenodd" d="M21.9943 147.548C24.2544 145.284 27.9523 145.284 30.2016 147.548L38.4233 155.767L46.638 147.548C48.8981 145.284 52.5959 145.284 54.856 147.548C57.1161 149.808 57.1161 153.499 54.856 155.756L46.638 163.978L54.8454 172.192C57.1161 174.456 57.1161 178.143 54.8454 180.407C52.5853 182.667 48.8981 182.667 46.638 180.407L38.4233 172.192L30.2088 180.407C27.9523 182.667 24.2544 182.667 21.9943 180.407C19.7342 178.143 19.7342 174.456 21.9943 172.192L30.2088 163.978L21.9943 155.756C19.7342 153.499 19.7342 149.808 21.9943 147.548Z" fill="#52B3CB"/>
<path fill-rule="evenodd" clip-rule="evenodd" d="M21.9943 545.415C24.2544 547.728 27.9523 547.728 30.2016 545.415L38.4233 537.013L46.638 545.415C48.8981 547.728 52.5959 547.728 54.856 545.415C57.1161 543.103 57.1161 539.326 54.856 537.013L46.638 528.604L54.8454 520.199C57.1161 517.886 57.1161 514.109 54.8454 511.789C52.5853 509.477 48.8981 509.477 46.638 511.789L38.4233 520.199L30.2088 511.789C27.9523 509.477 24.2544 509.477 21.9943 511.789C19.7342 514.109 19.7342 517.886 21.9943 520.199L30.2088 528.604L21.9943 537.013C19.7342 539.33 19.7342 543.106 21.9943 545.415Z" fill="#52B3CB"/>
<path fill-rule="evenodd" clip-rule="evenodd" d="M21.9943 183.837C24.2544 181.524 27.9523 181.524 30.2016 183.837L38.4233 192.25L46.638 183.837C48.8981 181.524 52.5959 181.524 54.856 183.837C57.1161 186.149 57.1161 189.933 54.856 192.242L46.638 200.648L54.8454 209.053C57.1161 211.366 57.1161 215.15 54.8454 217.452V217.463C52.5853 219.775 48.8981 219.775 46.638 217.463L38.4233 209.053L30.2088 217.463C27.9523 219.775 24.2544 219.775 21.9943 217.463V217.452C19.7342 215.15 19.7342 211.366 21.9943 209.053L30.2088 200.648L21.9943 192.242C19.7342 189.93 19.7342 186.146 21.9943 183.837Z" fill="#52B3CB"/>
<path fill-rule="evenodd" clip-rule="evenodd" d="M21.9943 508.359C24.2544 510.62 27.9523 510.62 30.2016 508.359L38.4233 500.144L46.638 508.359C48.8981 510.62 52.5959 510.62 54.856 508.359C57.1161 506.103 57.1161 502.411 54.856 500.151L46.638 491.928L54.8454 483.713C57.1161 481.453 57.1161 477.761 54.8454 475.501C52.5853 473.237 48.8981 473.237 46.638 475.501L38.4233 483.713L30.2088 475.501C27.9523 473.237 24.2544 473.237 21.9943 475.501C19.7342 477.761 19.7342 481.453 21.9943 483.713L30.2088 491.928L21.9943 500.151C19.7342 502.411 19.7342 506.103 21.9943 508.359Z" fill="#52B3CB"/>
<path fill-rule="evenodd" clip-rule="evenodd" d="M21.9943 220.887C24.2544 218.634 27.9523 218.634 30.2016 220.887L38.4233 229.11L46.638 220.887C48.8981 218.634 52.5959 218.634 54.856 220.887C57.1161 223.151 57.1161 226.853 54.856 229.106L46.638 237.328L54.8454 245.54C57.1161 247.8 57.1161 251.495 54.8454 253.752V253.759C52.5853 256.012 48.8981 256.012 46.638 253.759L38.4233 245.54L30.2088 253.759C27.9523 256.012 24.2544 256.012 21.9943 253.759V253.752C19.7342 251.495 19.7342 247.8 21.9943 245.54L30.2088 237.328L21.9943 229.106C19.7342 226.853 19.7342 223.151 21.9943 220.887Z" fill="#63C069"/>
<path fill-rule="evenodd" clip-rule="evenodd" d="M21.9943 472.108C24.2544 474.368 27.9523 474.368 30.2016 472.108L38.4233 463.886L46.638 472.108C48.8981 474.368 52.5959 474.368 54.856 472.108C57.1161 469.848 57.1161 466.154 54.856 463.89L46.638 455.668L54.8454 447.465C57.1161 445.205 57.1161 441.507 54.8454 439.243C52.5853 436.987 48.8981 436.987 46.638 439.243L38.4233 447.465L30.2088 439.243C27.9523 436.987 24.2544 436.987 21.9943 439.243C19.7342 441.507 19.7342 445.205 21.9943 447.465L30.2088 455.668L21.9943 463.89C19.7342 466.154 19.7342 469.851 21.9943 472.108Z" fill="#63C069"/>
<path fill-rule="evenodd" clip-rule="evenodd" d="M-14.2656 1.69764H-14.255C-11.9951 -0.565879 -8.30798 -0.565879 -6.04808 1.69764L2.17295 9.91889L10.3868 1.69764C12.6467 -0.565879 16.3373 -0.565879 18.6044 1.69764C20.8643 3.95759 20.8643 7.65198 18.6044 9.91194L10.3868 18.126L18.6044 26.3438C20.8536 28.6038 20.8536 32.2942 18.6044 34.5542C16.3373 36.8177 12.6431 36.8177 10.3868 34.5542L2.17295 26.3438L-6.0446 34.5542C-8.30094 36.8177 -11.9951 36.8177 -14.255 34.5542C-16.5149 32.2942 -16.5149 28.6038 -14.255 26.3438L-6.0446 18.126L-14.2656 9.91194C-16.5148 7.65198 -16.5148 3.95759 -14.2656 1.69764Z" fill="#63C069"/>
<path fill-rule="evenodd" clip-rule="evenodd" d="M-14.2656 691.263H-14.255C-11.9951 693.579 -8.30798 693.579 -6.04808 691.263L2.17295 682.862L10.3868 691.263C12.6467 693.579 16.3373 693.579 18.6044 691.263C20.8643 688.951 20.8643 685.171 18.6044 682.862L10.3868 674.454L18.6044 666.046C20.8536 663.734 20.8536 659.954 18.6044 657.649V657.642C16.3373 655.326 12.6431 655.326 10.3868 657.642L2.17295 666.046L-6.0446 657.642C-8.30094 655.326 -11.9951 655.326 -14.255 657.642V657.649C-16.5149 659.954 -16.5149 663.734 -14.255 666.046L-6.0446 674.454L-14.2656 682.862C-16.5148 685.171 -16.5148 688.951 -14.2656 691.263Z" fill="#63C069"/>
<path fill-rule="evenodd" clip-rule="evenodd" d="M-14.2656 37.9863H-14.255C-11.9951 35.6737 -8.30798 35.6737 -6.04808 37.9863L2.17295 46.3956L10.3868 37.9863C12.6467 35.6737 16.3373 35.6737 18.6044 37.9863C20.8643 40.2989 20.8643 44.0793 18.6044 46.3956L10.3868 54.7976L18.6044 63.2067C20.8536 65.5157 20.8536 69.2925 18.6044 71.6051V71.6122C16.3373 73.9249 12.6431 73.9249 10.3868 71.6122L2.17295 63.2067L-6.0446 71.6122C-8.30094 73.9249 -11.9951 73.9249 -14.255 71.6122V71.6051C-16.5149 69.2925 -16.5149 65.5157 -14.255 63.2067L-6.0446 54.7976L-14.2656 46.3956C-16.5148 44.0793 -16.5148 40.2989 -14.2656 37.9863Z" fill="#52B3CB"/>
<path fill-rule="evenodd" clip-rule="evenodd" d="M-14.2656 654.213H-14.255C-11.9951 656.469 -8.30798 656.469 -6.04808 654.213L2.17295 645.984L10.3868 654.213C12.6467 656.469 16.3373 656.469 18.6044 654.213C20.8643 651.942 20.8643 648.255 18.6044 645.995L10.3868 637.773L18.6044 629.559C20.8536 627.299 20.8536 623.608 18.6044 621.348C16.3373 619.088 12.6431 619.088 10.3868 621.348L2.17295 629.559L-6.0446 621.348C-8.30094 619.088 -11.9951 619.088 -14.255 621.348C-16.5149 623.608 -16.5149 627.299 -14.255 629.559L-6.0446 637.773L-14.2656 645.995C-16.5148 648.255 -16.5148 651.942 -14.2656 654.213Z" fill="#52B3CB"/>
<path fill-rule="evenodd" clip-rule="evenodd" d="M-14.2656 293.396H-14.255C-11.9951 291.136 -8.30798 291.136 -6.04808 293.396L2.17295 301.616L10.3868 293.396C12.6467 291.136 16.3373 291.136 18.6044 293.396C20.8643 295.655 20.8643 299.357 18.6044 301.616L10.3868 309.83L18.6044 318.044C20.8536 320.297 20.8536 323.994 18.6044 326.258C16.3373 328.518 12.6431 328.518 10.3868 326.258L2.17295 318.044L-6.0446 326.258C-8.30094 328.518 -11.9951 328.518 -14.255 326.258C-16.5149 323.994 -16.5149 320.297 -14.255 318.044L-6.0446 309.83L-14.2656 301.616C-16.5148 299.353 -16.5148 295.652 -14.2656 293.396Z" fill="#52B3CB"/>
<path fill-rule="evenodd" clip-rule="evenodd" d="M-14.2656 399.604H-14.255C-11.9951 401.864 -8.30798 401.864 -6.04808 399.604L2.17295 391.382L10.3868 399.604C12.6467 401.864 16.3373 401.864 18.6044 399.604C20.8643 397.347 20.8643 393.653 18.6044 391.389L10.3868 383.167L18.6044 374.959C20.8536 372.698 20.8536 369.004 18.6044 366.74C16.3373 364.483 12.6431 364.483 10.3868 366.74L2.17295 374.959L-6.0446 366.74C-8.30094 364.483 -11.9951 364.483 -14.255 366.74C-16.5149 369.004 -16.5149 372.698 -14.255 374.959L-6.0446 383.167L-14.2656 391.389C-16.5148 393.653 -16.5148 397.347 -14.2656 399.604Z" fill="#52B3CB"/>
<path fill-rule="evenodd" clip-rule="evenodd" d="M-14.2656 75.0419H-14.255C-11.9951 72.7817 -8.30798 72.7817 -6.04808 75.0419L2.17295 83.2642L10.3868 75.0419C12.6467 72.7817 16.3373 72.7817 18.6044 75.0419C20.8643 77.2986 20.8643 80.9933 18.6044 83.2535L10.3868 91.4758L18.6044 99.6944C20.8536 101.948 20.8536 105.642 18.6044 107.906C16.3373 110.163 12.6431 110.163 10.3868 107.906L2.17295 99.6944L-6.0446 107.906C-8.30094 110.163 -11.9951 110.163 -14.255 107.906C-16.5149 105.642 -16.5149 101.948 -14.255 99.6944L-6.0446 91.4758L-14.2656 83.2535C-16.5148 80.9933 -16.5148 77.2986 -14.2656 75.0419Z" fill="#52B3CB"/>
<path fill-rule="evenodd" clip-rule="evenodd" d="M-14.2656 617.961H-14.255C-11.9951 620.217 -8.30798 620.217 -6.04808 617.961L2.17295 609.74L10.3868 617.961C12.6467 620.217 16.3373 620.217 18.6044 617.961C20.8643 615.701 20.8643 612.007 18.6044 609.746L10.3868 601.532L18.6044 593.314C20.8536 591.054 20.8536 587.363 18.6044 585.099C16.3373 582.836 12.6431 582.836 10.3868 585.099L2.17295 593.314L-6.0446 585.099C-8.30094 582.836 -11.9951 582.836 -14.255 585.099C-16.5149 587.363 -16.5149 591.054 -14.255 593.314L-6.0446 601.532L-14.2656 609.746C-16.5148 612.007 -16.5148 615.701 -14.2656 617.961Z" fill="#52B3CB"/>
<path fill-rule="evenodd" clip-rule="evenodd" d="M-14.2656 329.684H-14.255C-11.9951 327.375 -8.30798 327.375 -6.04808 329.684L2.17295 338.098L10.3868 329.684C12.6467 327.375 16.3373 327.375 18.6044 329.684C20.8643 331.997 20.8643 335.781 18.6044 338.094L10.3868 346.507L18.6044 354.917C20.8536 357.219 20.8536 361.003 18.6044 363.316C16.3373 365.625 12.6431 365.625 10.3868 363.316L2.17295 354.917L-6.0446 363.316C-8.30094 365.625 -11.9951 365.625 -14.255 363.316C-16.5149 361.003 -16.5149 357.219 -14.255 354.917L-6.0446 346.507L-14.2656 338.094C-16.5148 335.781 -16.5148 331.997 -14.2656 329.684Z" fill="#63C069"/>
<path fill-rule="evenodd" clip-rule="evenodd" d="M-14.2656 111.294H-14.255C-11.9951 109.033 -8.30798 109.033 -6.04808 111.294L2.17295 119.509L10.3868 111.294C12.6467 109.033 16.3373 109.033 18.6044 111.294C20.8643 113.55 20.8643 117.242 18.6044 119.509L10.3868 127.724L18.6044 135.94C20.8536 138.2 20.8536 141.888 18.6044 144.155C16.3373 146.415 12.6431 146.415 10.3868 144.155L2.17295 135.94L-6.0446 144.155C-8.30094 146.415 -11.9951 146.415 -14.255 144.155C-16.5149 141.888 -16.5149 138.2 -14.255 135.94L-6.0446 127.724L-14.2656 119.509C-16.5148 117.238 -16.5148 113.547 -14.2656 111.294Z" fill="#52B3CB"/>
<path fill-rule="evenodd" clip-rule="evenodd" d="M-14.2656 581.701H-14.255C-11.9951 583.968 -8.30798 583.968 -6.04808 581.701L2.17295 573.483L10.3868 581.701C12.6467 583.968 16.3373 583.968 18.6044 581.701C20.8643 579.445 20.8643 575.75 18.6044 573.483L10.3868 565.272L18.6044 557.054C20.8536 554.797 20.8536 551.103 18.6044 548.843C16.3373 546.59 12.6431 546.586 10.3868 548.839L2.17295 557.054L-6.0446 548.839C-8.30094 546.586 -11.9951 546.586 -14.255 548.839C-16.5149 551.099 -16.5149 554.797 -14.255 557.054L-6.0446 565.272L-14.2656 573.483C-16.5148 575.75 -16.5148 579.445 -14.2656 581.701Z" fill="#52B3CB"/>
<path fill-rule="evenodd" clip-rule="evenodd" d="M-14.2656 147.548H-14.255C-11.9951 145.284 -8.30798 145.284 -6.04808 147.548L2.17295 155.767L10.3868 147.548C12.6467 145.284 16.3373 145.284 18.6044 147.548C20.8643 149.808 20.8643 153.499 18.6044 155.756L10.3868 163.978L18.6044 172.192C20.8536 174.456 20.8536 178.143 18.6044 180.407C16.3373 182.667 12.6431 182.667 10.3868 180.407L2.17295 172.192L-6.0446 180.407C-8.30094 182.667 -11.9951 182.667 -14.255 180.407C-16.5149 178.143 -16.5149 174.456 -14.255 172.192L-6.0446 163.978L-14.2656 155.756C-16.5148 153.499 -16.5148 149.808 -14.2656 147.548Z" fill="#52B3CB"/>
<path fill-rule="evenodd" clip-rule="evenodd" d="M-14.2656 545.415H-14.255C-11.9951 547.728 -8.30798 547.728 -6.04808 545.415L2.17295 537.013L10.3868 545.415C12.6467 547.728 16.3373 547.728 18.6044 545.415C20.8643 543.103 20.8643 539.326 18.6044 537.013L10.3868 528.604L18.6044 520.199C20.8536 517.886 20.8536 514.109 18.6044 511.789C16.3373 509.477 12.6431 509.477 10.3868 511.789L2.17295 520.199L-6.0446 511.789C-8.30094 509.477 -11.9951 509.477 -14.255 511.789C-16.5149 514.109 -16.5149 517.886 -14.255 520.199L-6.0446 528.604L-14.2656 537.013C-16.5148 539.33 -16.5148 543.106 -14.2656 545.415Z" fill="#52B3CB"/>
<path fill-rule="evenodd" clip-rule="evenodd" d="M-14.2656 183.837H-14.255C-11.9951 181.524 -8.30798 181.524 -6.04808 183.837L2.17295 192.25L10.3868 183.837C12.6467 181.524 16.3373 181.524 18.6044 183.837C20.8643 186.149 20.8643 189.933 18.6044 192.242L10.3868 200.648L18.6044 209.053C20.8536 211.366 20.8536 215.15 18.6044 217.452V217.463C16.3373 219.775 12.6431 219.775 10.3868 217.463L2.17295 209.053L-6.0446 217.463C-8.30094 219.775 -11.9951 219.775 -14.255 217.463V217.452C-16.5149 215.15 -16.5149 211.366 -14.255 209.053L-6.0446 200.648L-14.2656 192.242C-16.5148 189.93 -16.5148 186.146 -14.2656 183.837Z" fill="#52B3CB"/>
<path fill-rule="evenodd" clip-rule="evenodd" d="M-14.2656 508.359H-14.255C-11.9951 510.62 -8.30798 510.62 -6.04808 508.359L2.17295 500.144L10.3868 508.359C12.6467 510.62 16.3373 510.62 18.6044 508.359C20.8643 506.103 20.8643 502.411 18.6044 500.151L10.3868 491.928L18.6044 483.713C20.8536 481.453 20.8536 477.761 18.6044 475.501C16.3373 473.237 12.6431 473.237 10.3868 475.501L2.17295 483.713L-6.0446 475.501C-8.30094 473.237 -11.9951 473.237 -14.255 475.501C-16.5149 477.761 -16.5149 481.453 -14.255 483.713L-6.0446 491.928L-14.2656 500.151C-16.5148 502.411 -16.5148 506.103 -14.2656 508.359Z" fill="#52B3CB"/>
</g>
</svg>
