<svg width="18" height="18" viewBox="0 0 18 18" fill="none" xmlns="http://www.w3.org/2000/svg">
<path d="M7.4 0.200012C3.64844 0.200012 0.599998 3.24845 0.599998 7.00001C0.599998 10.7516 3.64844 13.8 7.4 13.8C8.88437 13.8 10.2562 13.3219 11.375 12.5125L16.6375 17.7625L17.7625 16.6375L12.5625 11.425C13.5844 10.2344 14.2 8.68907 14.2 7.00001C14.2 3.24845 11.1516 0.200012 7.4 0.200012ZM7.4 1.00001C10.7187 1.00001 13.4 3.68126 13.4 7.00001C13.4 10.3188 10.7187 13 7.4 13C4.08125 13 1.4 10.3188 1.4 7.00001C1.4 3.68126 4.08125 1.00001 7.4 1.00001Z" fill="#323232"/>
</svg>
