<?xml version="1.0" encoding="utf-8"?>
<!-- Generator: Adobe Illustrator 24.3.0, SVG Export Plug-In . SVG Version: 6.00 Build 0)  -->
<svg version="1.1" id="Слой_1" xmlns="http://www.w3.org/2000/svg" xmlns:xlink="http://www.w3.org/1999/xlink" x="0px" y="0px"
	 viewBox="0 0 32 28" style="enable-background:new 0 0 32 28;" xml:space="preserve">
<style type="text/css">
	.st0{fill:#D0D823;}
	.st1{fill:#3091D0;}
</style>
<path class="st0" d="M1,14c2.9,7,11.3,10.9,14.6,13.6L16,28l0.4-0.4C19.7,24.9,28.1,21,31,14H1z"/>
<path class="st1" d="M31,14c0.6-1.5,1-3.2,1-5c0-5-4.1-9-9-9c-2.8,0-5.3,1.3-7,3.4C14.3,1.3,11.9,0,9,0c-5,0-9,4.1-9,9
	c0,1.8,0.4,3.5,1,5H31z"/>
</svg>
